<svg xmlns="http://www.w3.org/2000/svg" xml:space="preserve" width="128" height="128" viewBox="0 0 24 24"><path d="M.524 20.91c.65 1.42 1.738 2.353 3.234 2.802.42.127.856.187 1.293.228.555.053 1.11.06 1.667.06h11.03c.525 0 1.048-.034 1.57-.1.823-.106 1.597-.35 2.296-.81a5.046 5.046 0 0 0 1.88-2.208c.186-.42.293-.87.37-1.324.113-.675.138-1.358.137-2.04-.002-3.8 0-7.596-.003-11.394h-.003a9.23 9.23 0 0 0-.24-2.19c-.317-1.31-1.062-2.31-2.18-3.043a5.018 5.018 0 0 0-1.878-.728 10.497 10.497 0 0 0-1.564-.15c-.04-.003-.083-.01-.124-.013H5.986c-.152.01-.303.017-.455.026-.747.043-1.49.123-2.193.401-1.336.53-2.3 1.452-2.865 2.78-.192.448-.292.925-.363 1.408a10.61 10.61 0 0 0-.1 1.18c0 .032-.007.062-.01.093v12.224c.01.14.017.283.027.424.05.816.154 1.625.497 2.374zm5.405-4.537c.357-.15.73-.232 1.108-.31.287-.06.575-.116.86-.177.383-.083.583-.323.6-.714v-.15c0-2.96 0-5.922.002-8.883 0-.123.013-.25.042-.37.07-.285.273-.448.546-.518.255-.066.515-.112.774-.165.733-.15 1.466-.296 2.2-.444l2.27-.46c.67-.134 1.34-.27 2.01-.403.22-.043.443-.088.664-.106.31-.025.523.17.554.482.008.073.012.148.012.223.002 1.91.002 3.822 0 5.732l.001.003v5.713c0 .417-.058.827-.244 1.206-.29.59-.76.962-1.388 1.14-.35.1-.706.157-1.07.173-.95.045-1.773-.6-1.943-1.536a1.88 1.88 0 0 1 1.038-2.022c.323-.16.67-.25 1.018-.324.378-.082.758-.153 1.134-.24.274-.063.457-.23.51-.516a.904.904 0 0 0 .02-.193c0-1.815 0-3.63-.002-5.443a.725.725 0 0 0-.026-.185c-.04-.15-.15-.243-.304-.234-.16.01-.318.035-.475.066-.76.15-1.52.303-2.28.456l-3.7.748c-.016.003-.032.01-.048.013-.277.077-.377.203-.39.49-.002.042 0 .086 0 .13-.002 2.602 0 5.204-.003 7.806 0 .42-.047.836-.215 1.227-.278.64-.77 1.04-1.434 1.233-.35.1-.71.16-1.075.172-.96.036-1.755-.6-1.92-1.544-.14-.813.23-1.686 1.154-2.076z"/></svg>