<svg xmlns="http://www.w3.org/2000/svg" width="128" height="128" viewBox="0 0 24 24"><path fill-rule="evenodd" d="M1.25 12C1.25 6.063 6.063 1.25 12 1.25S22.75 6.063 22.75 12 17.937 22.75 12 22.75 1.25 17.937 1.25 12Zm5.346-2.201a8.77 8.77 0 0 1 5.43-1.057 8.772 8.772 0 0 1 5.216 2.611.75.75 0 1 0 1.079-1.042 10.273 10.273 0 0 0-6.104-3.057A10.27 10.27 0 0 0 5.86 8.49.75.75 0 0 0 6.596 9.8Zm.609 2.453a8.77 8.77 0 0 1 4.358-.545c1.62.206 3.077.84 4.279 1.771a.75.75 0 0 0 .919-1.185 10.268 10.268 0 0 0-5.008-2.074 10.269 10.269 0 0 0-5.101.639.75.75 0 1 0 .553 1.394Zm3.86 2.415a8.788 8.788 0 0 0-3.274.195.75.75 0 1 1-.368-1.454 10.29 10.29 0 0 1 3.831-.228c1.384.176 2.67.62 3.813 1.274a.75.75 0 0 1-.745 1.302 8.785 8.785 0 0 0-3.258-1.088Z"/></svg>